P2
# 
2	2
255
160  60  23  23